<svg version="1.0" xmlns="http://www.w3.org/2000/svg" width="1706.667" height="853.333" viewBox="0 0 1280 640"><path d="M811.7 50.7c-3 1.2-16.9 16.8-69.6 77.7-36.3 41.8-67.9 78.2-70.2 80.9l-4.4 4.7-6.5-5.5c-7.8-6.8-15.2-11-29.1-16.9-13.5-5.6-18.4-8.1-23.6-12.1-5.1-3.9-13.7-5.9-22.4-5.3-6.1.4-6.4.6-11.1 5.9-8.4 9.3-18.9 22.7-32.8 41.6-7.3 10-14.5 19.7-15.9 21.4l-2.7 3.2-6.9-5.1c-3.9-2.7-12.8-8.2-20-12.2-15.3-8.5-18.7-10.8-18-12.1 1.4-2.2-1.5-.6-3.7 2C465 231 456 244.8 444.9 265c-7.8 14.2-17.2 29.1-26.2 42-10.5 14.9-27.6 38-28.2 38-.2 0-2.5-4.2-5-9.3-5.4-10.8-11.4-19.1-23.2-32-18.6-20.3-62.2-57.9-91-78.4-6.7-4.8-6.8-4.8-14.5-4.8-7.1.1-8.1.4-11.5 3.1-5.3 4.2-18.2 20.4-35.3 44.4-17.7 24.8-28.1 37-48.6 57-22.7 22.2-40.1 37.1-74.9 64.5-33.9 26.6-41.1 33.5-43.8 41.2-.7 2.2-8.6 16.8-17.5 32.5-14.4 25.4-17.9 32-23.9 45.6-.8 1.9-1.3 3.6-1 3.8.6.6 9.8-7.7 28.7-26.1 15.6-15.2 18.7-17.5 26.7-19.8 6.5-1.9 8.8-3.1 14-7.4 2.3-1.9 6.8-4.3 10-5.4 6.9-2.3 8.5-3.7 12.5-10.8 12.5-22.3 37-52.1 54.5-66.3 6.3-5.1 26.9-17.5 27.8-16.7.2.2-.7 4.3-2 9.1s-3.3 14.8-4.4 22.1c-1.1 7.4-2.5 14.5-3 15.8-.8 2.3-.9 2.2-1.5-1.1-.3-1.9-1.3-8.4-2.2-14.5-1.6-11-3.5-17.5-5.3-17.5-1.8 0-10.7 7.7-17.3 15.1-3.7 4.1-11.9 13.7-18.2 21.4-10.9 13.2-11.8 14.7-16.2 25.8-2.5 6.5-5.8 13.2-7.2 14.8-2.4 2.9-8.9 6.3-41.3 21.7-13.7 6.5-25.7 19.4-29.4 31.8-1.4 4.8-1.4 4.9 1.2 7.6 1.5 1.6 3.5 2.8 4.5 2.8 2.4 0 12.1-4.9 32.3-16.3 13.9-7.8 47.1-27 54.5-31.5 6.1-3.8-.6 1.2-12.5 9.3C84.2 491.6 67.2 505 60 513.3c-1.8 2.1-3 4-2.7 4.3.3.3 4.7-.2 9.8-1 5.2-.9 14.8-2.3 21.4-3.1 6.6-.9 15.3-2.2 19.2-3.1 4-.8 7.7-1.3 8.3-.9.5.3 1.5 2.4 2.2 4.6 2 6.9 5.4 8.1 14.7 5.3 13.1-3.9 20.4-17.5 31-58.4 2.2-8.5 5.2-19.7 6.6-24.8 1.3-5.1 4.3-21.6 6.5-36.5 4.2-28.6 6.3-38.1 8.3-37.4.7.2 1.3 2.2 1.5 4.4.3 4.7-.9 11.9-7.2 42.8-5.3 25.8-7.3 38.7-9 58.6-1.3 14.3-1.4 14.6-5.5 21.8-5.4 9.1-7.8 16.1-9.1 26.5-.9 6.2-.9 9.4 0 12.6l1.1 4.2 2.5-2.3c1.4-1.3 7-7.7 12.4-14.4 10.5-12.7 15.5-16.9 16.6-14 .4.8.1 7.5-.6 14.8-1.8 20.4-1.8 37.5 0 38.7 4.6 2.9 6.5-2.9 9.5-28 4.6-39.4 9.8-54.6 28.6-84.2 7.2-11.4 10.9-18 10.9-19.8 0-.5-.9-1-2.1-1-3 0-12.2 9.3-20.9 20.9-4.1 5.5-7.9 10-8.4 10.1-1.5 0 .1-33.9 2.9-62.5 3.2-32.4 3.2-55.7.1-61.4l-1.8-3.4 6.6-13.7c6.4-13.4 12.7-28.8 14-34.3.5-2 .3-2.7-.9-2.7-2.2 0-4.1 2.2-19.1 22.2-24.7 33.1-36.9 45.8-55.9 58.2-12.7 8.3-22.4 14-23 13.4-.3-.2 3-3.3 7.3-6.8 11.8-9.8 36.5-35 48.6-49.5 14.8-17.9 22.3-28 41.2-55.9 8.9-13.3 17.8-25.9 19.7-28.1l3.4-3.9 2.5 2.9c1.4 1.6 3.3 5.4 4.3 8.4 1 3.3 2 4.9 2.5 4.2 1.7-2.9 2.1 3.4 1.5 27.3-.3 13.8-.2 28.9.2 33.6l.9 8.5.8-17.2c.5-9.5.6-23.7.3-31.5l-.6-14.3 3.5 10.5c4.4 13.2 12.1 42.9 17.4 67 6.2 28.1 11.6 46 13.9 46 2.5 0 .7-19.6-5-53.4-1.6-9.8-2.8-18-2.6-18.3.2-.2 1.3 1.8 2.5 4.4 1.1 2.7 5.2 12 9 20.8 20.9 47.9 52.8 143.1 67.7 202 7.4 29.2 10.1 46.4 7.7 47.9-1.9 1.1-9.3-8.7-33.4-44.1-25-36.9-40.4-56.7-57.7-74.7-9.8-10.1-16.4-15.6-18.7-15.6-.8 0-1.5 2.1-1.9 5.7-.8 7.5-4.8 21.7-8.6 30.9-3.9 9.2-13.6 25.6-27.2 45.6-11.5 16.9-12.8 20.6-8.5 22.9 1.5.8 10.1 1.5 23.3 2 32.6 1.1 40.5 3.8 52 17.9 11.7 14.3 26.7 19.3 64.5 21.6 7.4.5 12.9 1.3 15.3 2.4 2.2 1 4.8 1.5 5.8 1.3 4.7-1.3 6.5-11 4.9-26.3-2.6-25.4-11.9-60.7-31.5-119.6-6.4-19-11.4-34.8-11.2-35 .2-.2 1.9.1 3.8.6 1.8.6 6 1 9.1 1 5.4 0 5.8-.2 5.8-2.3 0-1.3-2.4-11.1-5.4-21.8-15.7-55.9-13.4-57.2 17-9.7 8 12.5 16.3 24.9 18.5 27.5 5.6 6.7 12.5 18.4 22.8 39.2 14.1 28.1 38.6 70.8 44.3 77.3 2 2.3-.1-2.6-6.8-15.7-17-33.1-36.4-73.1-36.4-75.2 0-1.2 11.1 5.6 13.8 8.6 1.9 2 14.5 17.3 28 34.1 29.1 36.1 35.5 43.6 36 42.1.8-2.5-5.8-13.6-47.3-79.1-28.3-44.6-45.9-73.1-49.9-80.8l-1.7-3.4 15.8-15.3c8.7-8.4 18.1-18 20.8-21.4 2.8-3.3 5.4-6.1 5.8-6.1 1.9 0 45.5 31.7 63.7 46.3 17.9 14.4 29.1 24.8 34.1 31.9 11.4 15.9 13.4 18.1 19.9 22.4 9 5.9 13.6 12.7 22.2 32.7 7 16.5 11 23.6 15 27.5 2.9 2.7 9.2 5.3 11.1 4.6.7-.2 3.6-3.9 6.4-8.2 2.8-4.2 9.4-14.3 14.7-22.4 5.3-8.1 10.1-15 10.7-15.3.5-.4 1.6-.2 2.2.4 1 .8 1.1-.3.3-5.4-.5-3.6-1.4-6.5-2-6.5-.5 0-8.7 7.7-18.1 17-18.6 18.5-19.3 18.9-25.2 14.4-4.2-3.2-7.2-9.1-11.3-22.4-1.7-5.8-4.3-12.5-5.5-15.1-2.9-5.6-8.2-10.5-12.9-11.8-9.1-2.5-17.5-11.7-31.5-34.3-15.7-25.4-35.1-60.7-35.1-63.8 0-.5 1.8-1 3.9-1 2.2 0 4.2-.3 4.4-.8 1-1.6-1.3-4.9-5.3-7.7-7.2-5-10.3-13.8-12.5-35.4-.8-7.9-1.4-14.6-1.2-14.8.2-.1 1.9 1.8 3.7 4.4 4.6 6.4 35.9 38.3 43.6 44.4 7.5 5.9 14.4 9.2 18.7 8.7 2.9-.3 3.5.2 7.8 6.5 2.6 3.7 6.3 9.9 8.4 13.8 3.7 7.1 3.8 7.7 2 15.1-.6 2.4-.4 2.8 2.1 3.5 5.4 1.4 13.6.9 14.7-.8 2.6-4.1-17.5-35.7-48-75.7-4.1-5.4-4.5-11.1-1-15.9 5.9-8.2 20.9-27.9 28.5-37.5 7.5-9.5 9.1-10.9 13.3-12.3 2.6-.9 5.9-2.7 7.4-4l2.6-2.5 1.6 3.8c.8 2 3.1 8.6 5 14.7 6.8 21.4 11 26.5 34.6 42.4 7.6 5.1 16.1 11.4 18.9 14l5 4.6.5 11.5.5 11.5-7.6 22c-4.1 12.2-7.8 24.4-8.1 27.2-.9 6.4 1.1 10.9 8 18 8.2 8.5 9.8 6.4 4.3-5.3-2.1-4.5-3.2-8.3-3.2-11.4 0-4.3 4.1-19 5.3-19 .3 0 1.9 3 3.6 6.7 4.5 10.2 13.7 23.4 22.3 32 6.2 6.3 8.3 9.2 10.7 14.8 9.7 23.7 40.2 80 53.2 98.3 6.5 9.2 17.8 18.1 26.2 20.7 2.3.7 2.4.6 1.8-2.8-2-12.4-27.6-62.9-47.2-93.2-5.1-7.9-5.5-8.7-2.9-7 1.6 1 13.1 8.5 25.5 16.7 12.4 8.1 23.3 14.8 24.2 14.8 3.1 0 4.8-1.3 6.8-5.1 1-2.1 4-6.2 6.5-9 4.6-5.2 6.5-8.6 10.7-19.4 2.7-6.9 23.9-41.9 27.3-45.2 1.3-1.2 2.4-2.9 2.4-3.8 0-1.6 94-156 99-162.5 1.4-1.9 4.3-7.1 6.4-11.5 4.9-10.4 14.9-25.4 22.1-33 4.6-4.9 5.3-5.4 3.7-2.5-1.1 1.9-7 13.2-13.2 25-6.2 11.8-13.2 24.9-15.5 29-8.8 15.7-23.7 48.2-56.9 124.1-8.8 20.3-9 23.7-.7 19.5 4.4-2.3 18.4-17.8 25.2-27.8 3.4-5.1 6-8.6 5.7-7.8-.3.8-4.5 10.9-9.3 22.5-16.1 39.1-18.2 48-12.6 53.6 2.8 2.8 3.3 2.9 12.3 2.9 15.3 0 19.8 2.3 19.8 10.2 0 4.2.9 4.7 3.2 2 2.2-2.5 2.6-4.1 4.3-20.2 2.7-25.4 3.4-28.9 7.7-38 2.4-5.1 6.4-17.5 10.1-31l6.2-22.5.1 18.5c0 10.2.5 21.9 1.2 26.1l1.1 7.6-4.5 11.8c-2.4 6.5-5 12.5-5.6 13.2-.7.9-.6 2 .6 3.9 3.5 5.2 8 1 11.1-10.4 1.2-4.3 1.4-4.5 2.1-2.2.4 1.4 2.7 6.4 5.1 11.1 4.8 9.8 14.4 19.8 20.8 21.9 4.5 1.5 10.1.5 11.5-2 2.1-3.9 1.1-6.9-3.5-11.4-5.2-5.1-5.1-4-3-27.1 1.6-18 3.6-26.2 10.2-41.9 3.9-9.2 5-11 7.6-12.1 3.8-1.6 4.9-1.2 11.1 3.7 6 4.7 10.9 5.1 15.4 1.3 6.4-5.3 8.8-19.3 5.8-32.9-3-13.2-6.5-20.5-25.3-52.6-8.5-14.4-9.3-16.5-12.8-29.5-2-7.7-4.5-16.8-5.6-20.3-1.5-4.7-1.7-6.7-.9-8.2.6-1.1 1.4-2 1.9-2 .4 0 3.2 8.2 6.1 18.2 6 21.1 10.1 31.9 13.7 36.6 1.7 2.3 5.8 4.9 14.1 8.8 6.4 3 12 6 12.4 6.7 1.8 2.8.7 6.4-3.2 10.6-2.2 2.3-4 4.7-4 5.2 0 1.7 4.8 5.9 6.8 5.9 2.7 0 9.9-5.5 11.7-8.9 2.5-5 1.9-8.6-2.7-15.4-9-13.4-17.6-22.7-26-28-2.7-1.7-2.8-2.1-2.8-9.4 0-4.3.7-13.4 1.5-20.4.9-6.9 1.5-16 1.3-20-.3-7.2-.4-7.4-3.4-8.8-5.9-2.6-14.3-18.5-15.2-28.8-.6-6.7.9-7.5 8.1-3.9 5.3 2.6 19.7 11.5 18.6 11.6-.3 0-3.3-1.1-6.7-2.5-6.3-2.5-10.2-3.2-10.2-1.7 0 .5 3 6.7 6.7 13.8 3.7 7.1 7.3 15.4 8 18.4.8 3.5 1.3 12.4 1.3 24.1v18.7l4.4 8.8c5.2 10.3 13.6 19.9 28.4 32.5 18.7 16 26.6 23.5 34.3 32.8 10.1 12.1 11.9 15.8 13.5 28.9.8 5.9 1.9 13.2 2.6 16.2l1.2 5.5 1.3-12c.8-6.9 1.2-18 1-26-.4-15.6-1.7-20.4-8.1-30-5.1-7.8-8.6-15-17-35.9-4.2-10.3-9.9-22.6-12.6-27.1-5.8-9.6-8.7-15.8-14-30.2l-3.8-10.3 5.8 5c6.6 5.7 15 15.7 20.6 24.5 4.6 7.2 14.7 28.3 16.5 34.3 1 3.4 2.3 5.1 5.8 7.5 8.7 5.8 74.9 57.7 73.7 57.7-.2 0-2.5-.9-5-1.9l-4.5-2-.7 4.7c-.8 6.2-2.6 8.7-7.7 11.3-7.5 3.7-14.7 9.2-14.7 11 0 1 5.5 7.4 12.3 14.3 10.5 10.7 13.5 13.1 21.2 17.1 12.5 6.6 21.9 13 25.4 17.2 1.6 1.9 4.9 7.5 7.3 12.4l4.5 8.9 1.8-7.3c1.7-6.9 1.7-7.9.1-21.7-.9-8-2.5-17.2-3.6-20.5-1-3.3-2.2-8-2.5-10.5-.4-2.4-1.5-5.6-2.4-7-1-1.5 2.4.6 8.4 5.3 33.2 25.9 57.2 43.2 62.8 45.3 7.3 2.7-5-9.6-103.8-104.1-39.6-37.9-79-75.9-87.5-84.3-17-16.9-20.8-20.1-38.5-31.9-28-18.8-51-31-60.1-32.1-4.2-.4-4.3-.4-6.4 3.9-5 9.8-20.6 30.4-33 43.4-7.7 8.1-11.5 13-15.5 19.9-1.6 2.7-3.1 4.4-3.3 3.7-.7-2.2-10.2 13.1-10.2 16.4 0 .9-4.3 10.3-9.5 20.9-7.6 15.5-10.7 20.7-15.9 26.7-3.5 4-9.3 10.8-12.8 14.9-4.2 5-7.5 7.8-9.6 8.5-2.3.6-3.1 1.4-2.7 2.5.7 2.2-12 31.5-20.7 47.9-8.1 15-18.9 31.9-31.6 49.4l-8.6 11.7-6.4 2c-3.5 1.1-9.3 2-12.7 2h-6.3l-13.8-24.1c-7.5-13.3-16.3-27.4-19.5-31.3-3.2-3.9-20.4-21.2-38.3-38.5S679 225.2 679 224.8c0-2.9 6.3-12.1 15.6-22.9 11.9-13.7 29.6-33.9 29.8-33.9 0 0 .1 2.5.1 5.6 0 5.1.3 5.8 3.4 8.6l3.4 3-5.2 10c-2.9 5.5-5.1 10.2-4.8 10.4.2.2 2.8-4 5.7-9.4 6.5-11.8 6.8-12.2 8.6-11.5 3.3 1.2 6 9.1 12.4 36.5 5 21 8.5 24.7 11.4 12 .8-3.7 4.2-23 7.6-43 3.3-20 6.5-37.4 7-38.8.7-1.9 1.6-2.5 3.3-2.2 1.6.2 3.1 2.2 5.9 7.9 2.9 6.2 4.6 8.3 8.4 10.8 4.5 3.1 4.6 3.1 4 .9-.3-1.3-.6-3.5-.6-4.9 0-1.4-1.3-4.5-2.9-7-3.9-5.9-4.3-8.8-3.2-20.7.8-8.9 1.3-10.5 3.3-12.2 2.8-2.3 7.1-2.6 8.8-.5 2.2 2.6-.3 49.4-4 77.6-1.3 9.8-5.1 25-9 36.3-3.2 9.6-4.1 15.3-1.6 10.6.8-1.4 3.5-8.4 6-15.5 2.6-7.2 7.8-21.1 11.6-31 4.1-10.8 7.5-21.6 8.5-27 5.4-29.3 6.7-35 8.7-36.4 2.2-1.5 11.7-9.5 24.3-20.4 8.8-7.5 16.1-12.7 18.2-12.7.7 0 3.8 5.1 6.7 11.2 5.3 11 5.8 11.6 17.1 22.2 6.4 6 12.9 12.7 14.3 14.9 3.2 4.8 4.1 3.1 1.9-3.5-3.8-11-5.4-13.6-13-21.8-5.4-5.7-9-10.6-11.1-15-7.8-16.8-18.9-32.5-32.5-46-16.7-16.6-25.2-20.5-35.4-16.3zM846.6 75c9.9 11.1 18.1 20.6 18.3 21.2.3.8-2.2.9-8.6.5-8.7-.5-16.3-2.6-16.3-4.5 0-.5-1.9-2.2-4.2-3.7-6.5-4.1-9.6-7.5-10.3-10.7-.5-2.3 2.3-22.8 3.1-22.8.1 0 8.2 9 18 20zm-58.5 12.6c-2.6 6-5.8 12.8-6.9 15.1-1.2 2.3-2.2 4.4-2.2 4.7 0 .3 4.2-2.1 9.3-5.3 11.4-7.1 19.5-11.8 18.2-10.4-.9 1-39.1 26.4-40.7 27.1-2.3 1-.2-4.4 4.5-11.7 5.6-8.9 21.9-31.3 22.4-30.8.1.2-1.9 5.3-4.6 11.3zm188.3 36.7c1.1.8 1.7 1.9 1.5 2.6-.3.8-1.3.3-2.8-1.3-2.6-2.8-1.7-3.5 1.3-1.3zm-209.4 3c0 .2-2.3 2.1-5.2 4.2-6.6 5.1-18.3 19.1-24.5 29.4-4.7 7.8-7.1 10.3-5.7 5.9.4-1.3.7-3.5.6-5 0-2.1 1.8-4.4 8.6-11 4.8-4.6 10.9-11.1 13.5-14.6 2.7-3.6 6.2-7 8-7.7 3.1-1.4 4.7-1.8 4.7-1.2zm11 1.5c0 1.7-5.9 9.1-8.2 10.3-2.2 1.2-2.2 1.2-.5-1.2.9-1.3 2.7-4.1 3.9-6.2 1.9-3.3 4.8-5 4.8-2.9zm203.3 23.4c-.6 10.3-1.1 12.1-5.1 17.4-2 2.7-4.5 6.1-5.4 7.4-1 1.4.4-3.8 3.1-11.5 4.2-12.2 7.1-19.5 7.6-19.5.1 0 0 2.8-.2 6.2zm-1.7 47.9c-5.2 19-8.4 29-9.7 30.3-.5.6-.9 3.5-.9 6.7 0 5.7 2.7 11.7 5.8 12.7.7.2 5.2-3.6 10-8.4 4.8-4.9 7.9-7.8 7-6.4-3.1 4.5-15.7 25.5-16.4 27.3-.4 1.1-1.3 1.6-2.2 1.2-3.4-1.3-7.7 4-11.8 14.4l-1.4 3.6.4-5c.3-2.8 1-12.4 1.6-21.5.9-12.9 1.7-17.9 3.6-23 1.3-3.6 4.4-13.3 7-21.5 4.6-14.9 9.9-28.3 10.9-27.3.3.3-1.5 7.9-3.9 16.9zm-364.3-3c13.1 3.7 31 11.1 34.7 14.3.8.7 3.5 1.6 6 1.9 5.2.7 7.9 3.3 5.6 5.5-1.2 1.2-1.9 1.1-4.9-1.2-3.4-2.6-13.3-5.3-33-9-4.9-.9-11.6-2.7-15-4-5.5-2-6.5-2.7-8.4-6.7-2.7-5.3-2.8-6.3-.7-5.5.9.3 8 2.4 15.7 4.7zm1.4 21.6c1.3 3.9 9.5 15.2 12.5 17.5 4.4 3.3 10.5 6.4 14.6 7.3 2.6.5 3.7 1.5 4.8 4.1.8 1.9 2.1 3.7 2.9 4.1.8.3 1.5 1.2 1.5 2 0 1-.9.7-3.2-1.1-1.8-1.3-9.8-6.5-17.8-11.6-8-5-16-10.6-17.8-12.3-2.9-2.7-7.2-9.4-7.2-11.2 0-.3 2-.5 4.5-.5 3.4 0 4.7.4 5.2 1.7zm-124.8 14.4c7.4 3.2 20.2 12.4 27.1 19.5 3.6 3.7 5.8 6.3 5 5.8-.9-.5-5.9-3.5-11.1-6.7-5.3-3.1-14-7.7-19.4-10.2-11-4.9-11-4.9-11.9-8.8-.7-2.8-.6-2.9 2.6-2.2 1.8.4 5.3 1.6 7.7 2.6zm193.6 10c6.3 7.8 7 10.6.9 3.6-3.8-4.3-8-10.7-7.1-10.7.3 0 3 3.2 6.2 7.1zM476 250.7c1.1 3.6 1.9 6.8 1.7 7-.4.3-5.7-12.7-5.7-14 0-.5.4-.5 1-.2.5.3 1.9 3.6 3 7.2zm-5.1 2c-1 5-8.7 20.4-12.6 24.9l-2.4 2.9 1.9-4c1-2.2 4.3-10 7.2-17.3 5.2-13.1 7.6-15.7 5.9-6.5zm-180.4 16.4c6.3 9.3 11.1 21.1 15.1 36.8 1.8 7.4 3.2 13.6 3 13.8-.1.2-4.2-9.2-9.1-20.9-4.8-11.7-11-26-13.6-31.8-5.3-11.4-4.2-10.9 4.6 2.1zm411.1 13.1c-4.8 9.7-6.9 20.1-6.3 30.3.6 9.6 2.6 15.3 11.3 33.3 9.3 19.2 10 20.9 8 19.3-5-4.1-21.2-33.9-24.7-45.4-2.7-8.6-2.4-10.5 4.6-28.5 3-7.9 6-16.4 6.7-18.9l1.1-4.6 1.4 3.6c1.4 3.4 1.3 3.9-2.1 10.9zm263.2 17.1c-3.3 13.1-6.3 23.5-6.5 23.3-.3-.2-.4-4-.4-8.4 0-5.9.7-9.8 2.7-15.3 3.3-9.3 9.6-24.1 10-23.6.2.1-2.4 11-5.8 24zm205.7-14.7c2.8 1.8 11.5 9.9 19.5 17.9 10.9 10.9 13.9 14.5 12.4 14.5-1.4 0-7.6-5.2-17.6-14.8-8.4-8.1-17.4-16.4-19.8-18.5-3.7-3.1-4-3.7-2-3.2 1.4.4 4.8 2.2 7.5 4.1zm-451.4 27.6c2.1 5.9 3.6 10.8 3.3 10.8-1.4 0-7.3-15.2-7.8-20-.3-3-.2-4.6.1-3.6.3 1.1 2.2 6.8 4.4 12.8zm79.7 48.6c-2.4 3.4-4.5 6.1-4.8 6.1-.3.1-1.7-1.8-3.2-4.2l-2.7-4.2 3.7-.7c2-.3 5.3-1.3 7.2-2.1 1.9-.9 3.6-1.4 3.8-1.2.2.2-1.6 3-4 6.3zm-698.4 45.4c-5.7 5-27.8 24.8-37.9 34l-7 6.3 9.2-10.5c5-5.8 11.6-12.9 14.5-15.8 5.1-4.9 23.2-18 25.2-18.1.5-.1-1.3 1.8-4 4.1zm25.6 57.3c0 .2-1 .9-2.2 1.5-2.2 1.1-2.2 1-.4-.4 2.1-1.7 2.6-1.9 2.6-1.1z"/><path d="M1048.1 229c-.1.8.6 4 1.4 7 .8 3 1.5 5.9 1.5 6.3 0 .4-2-.6-4.5-2.3-2.5-1.7-4.5-2.7-4.5-2.3.1 2 3.1 18.5 4.6 24.6 3 12.4.8 17.8-11.1 28.1-15.3 13.2-16.2 15.6-14.7 37.1 1.2 16.1.6 21.8-2.1 22.3-1 .2-5.6-3.4-11.7-9.2-5.6-5.3-10.6-9.6-11.1-9.6-1.6 0-1 2.9 1.2 5.1 1.1 1.1 3.5 2.7 5.3 3.4 6.3 2.7 7.1 4.5 7 16.4-.1 8.1-1 14.7-3.9 28.1-3.8 17.9-5.3 31.2-4.1 37.1.3 2 3.8 7.6 8.1 13.4 6.1 8 7.5 10.6 7.3 13-.3 3-.6 3.3-10.8 7.9-3.5 1.6-3.7 5-.5 8.2 2.3 2.3 3.1 2.5 7.3 1.9 2.6-.3 6.3-1.7 8.4-3 8.9-5.8 6.9-17.1-6.6-36.5-3.6-5.2-6.6-10.3-6.6-11.3 0-2.6 6.1-14.4 16.9-32.7 9.9-16.7 13.6-23.9 14.7-28.2.5-2.3.2-2.9-1.9-3.7-7.9-3-7.2-16.7.7-14.7 6.6 1.6 21.2 17.2 31 32.9 11.1 17.8 15.4 32.8 16.3 56.7l.6 16.5 1.9-4.5c4-9.3 5-16.7 4.6-32-.6-16.8.3-14.5-13.9-37.1-11.7-18.7-19.2-33.2-21.4-41.4-2-7.5-2.1-18.2-.2-22.6.8-1.9 4.8-6.5 9-10.3 9.3-8.3 9.8-9.9 6.6-21.7-4.1-15.4-8.9-24.1-14.5-26.5-1.8-.7-3.5-2.3-3.9-3.4-1.3-4.2-6.4-14.4-6.4-13z"/><path d="M1079.4 275.1c1.9 13.8 2.4 23.2 1.5 29.6-2.1 14.9-2.2 19.8-.4 25.9 2.3 8 5.7 12.4 9.6 12.4 2.6 0 3.3-.6 4.9-4.3 1.3-2.8 2-6.5 2-11.2 0-3.9.4-7.5.8-8 .4-.6 4.8-1.1 9.7-1.2 5 0 10.5-.2 12.4-.4 3.3-.4 3.5-.2 4.8 4 .7 2.4 2.4 11.7 3.7 20.5 4.7 30.2 4.5 32.4-1.9 29.3-2-.9-3.8-1.7-4.2-1.7-.3 0-.3 2 0 4.5.6 5.6 5.1 13.2 9.6 16.2 3.9 2.7 5 2.8 7.6.9 3.7-2.7 3-26.7-1.4-52.5-2.4-13.4-5.1-23.2-9.4-33.9l-3.3-8.2-5.3 4.5c-8 6.8-10.4 7.9-14.9 6.4-5.2-1.7-10.9-5.4-12.9-8.6-1-1.4-3.8-8.5-6.3-15.6-4.9-14.2-7.8-18-6.6-8.6zM639 435.2c0 .9.5 2 1 2.3 1.3.8 1.3-.5 0-2.5-.8-1.3-1-1.3-1 .2z"/></svg>